<svg width="217" height="252" viewBox="0 0 217 252" fill="none" xmlns="http://www.w3.org/2000/svg">
<circle cx="108.5" cy="95.5" r="95.5" fill="#ED4A25"/>
<path d="M85.6551 110.872H41.9371C39.7282 108.509 41.9371 106.251 43.3177 105.417L119.479 105.19C122.056 104.827 125.001 106.402 126.152 107.236C127.256 108.69 126.612 109.66 126.152 109.963C125.6 111.054 120.86 113.6 118.559 114.736L122.24 128.601H139.497C140.602 124.237 144.866 117.994 146.86 115.418C149.621 112.145 154.607 107.993 156.754 106.327L154.453 89.5072L159.285 87.4615L160.666 90.4163H163.887C166.096 90.78 167.722 92.2346 168.259 92.9165V95.4167C167.707 96.8714 165.421 98.1442 164.348 98.5988C162.323 98.2351 161.97 99.0533 162.047 99.5079C162.047 101.872 163.274 103.675 163.887 104.281C167.753 105.19 170.56 106.478 171.48 107.009C173.873 108.827 175.699 111.251 176.312 112.236C177.417 113.509 175.852 114.585 174.932 114.964H172.401C170.56 113.691 167.339 112.767 165.958 112.463H159.285C158.549 112.282 155.757 113.6 154.453 114.282C152.06 115.736 148.854 120.04 147.551 122.01C145.526 124.555 143.711 130.192 143.057 132.692H118.329L111.886 120.191C110.045 116.373 106.21 114.358 104.523 113.827C99.5528 111.827 94.9356 113.297 93.2482 114.282C91.7756 114.282 86.0386 118.828 83.3542 121.101C82.986 119.1 84.7347 113.448 85.6551 110.872Z" fill="white"/>
<path d="M110.508 130.975C107.682 140.421 101.596 144.435 94.6397 143.963C87.2492 143.461 83.7713 138.059 84.4234 128.614C86.3024 119.049 93.9876 114.918 100.726 115.862C107.247 116.335 111.812 121.057 110.508 130.975Z" fill="white"/>
<path d="M174.569 130.975C171.541 140.421 165.02 144.435 157.567 143.963C149.649 143.461 145.923 138.059 146.621 128.614C148.635 119.049 156.869 114.918 164.088 115.862C171.075 116.335 175.966 121.057 174.569 130.975Z" fill="white"/>
<path d="M106.802 131.548C104.784 137.845 100.436 140.521 95.468 140.206C90.189 139.872 87.7048 136.27 88.1706 129.973C89.5127 123.597 95.0022 120.843 99.8153 121.472C104.473 121.787 107.734 124.936 106.802 131.548Z" fill="#ED4A25"/>
<path d="M168.995 131.548C166.976 137.845 162.629 140.521 157.66 140.206C152.381 139.872 149.897 136.27 150.363 129.973C151.705 123.597 157.195 120.843 162.008 121.472C166.666 121.787 169.926 124.936 168.995 131.548Z" fill="#ED4A25"/>
<path d="M129.97 107.453L126.859 119.233C123.186 126.579 132.368 132.548 136.776 119.477L139.272 104.311C138.559 101.641 136.802 100.159 136.042 99.7866L121.808 96.046L127.208 85.5445C122.851 80.9841 120.456 74.9506 119.802 72.5039L120 70.3077C120.867 68.0936 122.384 67.2231 123.034 67.0646C125.766 66.3731 127.492 68.7255 128.014 69.9882L130.337 74.6258C131.296 70.3361 130.043 67.3058 129.297 66.3269C127.003 62.1607 121.879 64.0084 119.603 65.453C113.398 70.8326 111.1 85.7422 110.727 92.5246L110.794 98.3916C111.623 102.947 111.109 102.062 112.303 102.474L129.97 107.453Z" fill="white" stroke="white"/>
<path d="M137.612 90.9797C127.216 87.6997 122.384 77.082 121.268 72.1832C121.093 68.6692 124.931 67.8058 125.775 68.8832C126.451 69.7452 127.714 72.0883 128.261 73.1521L128.27 73.1899C130.524 77.4108 131.995 78.8277 133.521 80.2747C135.736 82.6613 139.442 84.2836 141.153 84.3893L150.344 83.428C154.852 84.5489 152.573 90.4179 150 90.9437C147.85 91.0532 139.205 91.859 137.612 90.9797Z" fill="white" stroke="white"/>
<ellipse cx="135.231" cy="56.3654" rx="9.42308" ry="10.3654" fill="white"/>
<rect x="52.325" y="97.6776" width="52.9997" height="4.33722" fill="white"/>
<ellipse cx="105.433" cy="99.8462" rx="2.60121" ry="2.16861" fill="white"/>
<ellipse cx="52.325" cy="99.8462" rx="2.60121" ry="2.16861" fill="white"/>
<rect x="45.1802" y="69.416" width="38.3935" height="4.33722" fill="white"/>
<ellipse cx="83.652" cy="71.5846" rx="1.88434" ry="2.16861" fill="white"/>
<ellipse cx="45.1801" cy="71.5846" rx="1.88434" ry="2.16861" fill="white"/>
<path d="M106.232 95.3204C87.8322 95.3204 97.994 95.3204 87.8322 95.3204C77.6703 95.3204 82.5515 95.3204 69.4325 95.3204C69.4325 84.2288 77.6703 75.2372 87.8322 75.2372C97.994 75.2372 106.232 84.2288 106.232 95.3204Z" fill="white"/>
<rect x="69.4325" y="94.6604" width="36.7993" height="2.07432" fill="white"/>
<ellipse cx="87.8322" cy="71.8429" rx="1.42691" ry="1.5086" fill="white"/>
<path d="M31.0131 221.43V226.225H21.0031V231.405H28.4931V236.06H21.0031V246H15.0181V221.43H31.0131ZM45.7788 246.245C43.4688 246.245 41.3454 245.708 39.4088 244.635C37.4954 243.562 35.9671 242.068 34.8238 240.155C33.7038 238.218 33.1438 236.048 33.1438 233.645C33.1438 231.242 33.7038 229.083 34.8238 227.17C35.9671 225.257 37.4954 223.763 39.4088 222.69C41.3454 221.617 43.4688 221.08 45.7788 221.08C48.0888 221.08 50.2004 221.617 52.1138 222.69C54.0504 223.763 55.5671 225.257 56.6638 227.17C57.7838 229.083 58.3438 231.242 58.3438 233.645C58.3438 236.048 57.7838 238.218 56.6638 240.155C55.5438 242.068 54.0271 243.562 52.1138 244.635C50.2004 245.708 48.0888 246.245 45.7788 246.245ZM45.7788 240.785C47.7388 240.785 49.3021 240.132 50.4688 238.825C51.6588 237.518 52.2538 235.792 52.2538 233.645C52.2538 231.475 51.6588 229.748 50.4688 228.465C49.3021 227.158 47.7388 226.505 45.7788 226.505C43.7954 226.505 42.2088 227.147 41.0188 228.43C39.8521 229.713 39.2688 231.452 39.2688 233.645C39.2688 235.815 39.8521 237.553 41.0188 238.86C42.2088 240.143 43.7954 240.785 45.7788 240.785ZM73.2934 246.245C70.9834 246.245 68.8601 245.708 66.9234 244.635C65.0101 243.562 63.4818 242.068 62.3384 240.155C61.2184 238.218 60.6584 236.048 60.6584 233.645C60.6584 231.242 61.2184 229.083 62.3384 227.17C63.4818 225.257 65.0101 223.763 66.9234 222.69C68.8601 221.617 70.9834 221.08 73.2934 221.08C75.6034 221.08 77.7151 221.617 79.6284 222.69C81.5651 223.763 83.0818 225.257 84.1784 227.17C85.2984 229.083 85.8584 231.242 85.8584 233.645C85.8584 236.048 85.2984 238.218 84.1784 240.155C83.0584 242.068 81.5418 243.562 79.6284 244.635C77.7151 245.708 75.6034 246.245 73.2934 246.245ZM73.2934 240.785C75.2534 240.785 76.8168 240.132 77.9834 238.825C79.1734 237.518 79.7684 235.792 79.7684 233.645C79.7684 231.475 79.1734 229.748 77.9834 228.465C76.8168 227.158 75.2534 226.505 73.2934 226.505C71.3101 226.505 69.7234 227.147 68.5334 228.43C67.3668 229.713 66.7834 231.452 66.7834 233.645C66.7834 235.815 67.3668 237.553 68.5334 238.86C69.7234 240.143 71.3101 240.785 73.2934 240.785ZM98.3931 221.43C100.983 221.43 103.246 221.943 105.183 222.97C107.12 223.997 108.613 225.443 109.663 227.31C110.736 229.153 111.273 231.288 111.273 233.715C111.273 236.118 110.736 238.253 109.663 240.12C108.613 241.987 107.108 243.433 105.148 244.46C103.211 245.487 100.96 246 98.3931 246H89.1881V221.43H98.3931ZM98.0081 240.82C100.271 240.82 102.033 240.202 103.293 238.965C104.553 237.728 105.183 235.978 105.183 233.715C105.183 231.452 104.553 229.69 103.293 228.43C102.033 227.17 100.271 226.54 98.0081 226.54H95.1731V240.82H98.0081ZM138.03 221.43V226.225H128.02V231.405H135.51V236.06H128.02V246H122.035V221.43H138.03ZM147.055 221.43V236.13C147.055 237.6 147.417 238.732 148.14 239.525C148.864 240.318 149.925 240.715 151.325 240.715C152.725 240.715 153.799 240.318 154.545 239.525C155.292 238.732 155.665 237.6 155.665 236.13V221.43H161.65V236.095C161.65 238.288 161.184 240.143 160.25 241.66C159.317 243.177 158.057 244.32 156.47 245.09C154.907 245.86 153.157 246.245 151.22 246.245C149.284 246.245 147.545 245.872 146.005 245.125C144.489 244.355 143.287 243.212 142.4 241.695C141.514 240.155 141.07 238.288 141.07 236.095V221.43H147.055ZM174.743 246.245C172.946 246.245 171.336 245.953 169.913 245.37C168.49 244.787 167.346 243.923 166.483 242.78C165.643 241.637 165.2 240.26 165.153 238.65H171.523C171.616 239.56 171.931 240.26 172.468 240.75C173.005 241.217 173.705 241.45 174.568 241.45C175.455 241.45 176.155 241.252 176.668 240.855C177.181 240.435 177.438 239.863 177.438 239.14C177.438 238.533 177.228 238.032 176.808 237.635C176.411 237.238 175.91 236.912 175.303 236.655C174.72 236.398 173.88 236.107 172.783 235.78C171.196 235.29 169.901 234.8 168.898 234.31C167.895 233.82 167.031 233.097 166.308 232.14C165.585 231.183 165.223 229.935 165.223 228.395C165.223 226.108 166.051 224.323 167.708 223.04C169.365 221.733 171.523 221.08 174.183 221.08C176.89 221.08 179.071 221.733 180.728 223.04C182.385 224.323 183.271 226.12 183.388 228.43H176.913C176.866 227.637 176.575 227.018 176.038 226.575C175.501 226.108 174.813 225.875 173.973 225.875C173.25 225.875 172.666 226.073 172.223 226.47C171.78 226.843 171.558 227.392 171.558 228.115C171.558 228.908 171.931 229.527 172.678 229.97C173.425 230.413 174.591 230.892 176.178 231.405C177.765 231.942 179.048 232.455 180.028 232.945C181.031 233.435 181.895 234.147 182.618 235.08C183.341 236.013 183.703 237.215 183.703 238.685C183.703 240.085 183.341 241.357 182.618 242.5C181.918 243.643 180.891 244.553 179.538 245.23C178.185 245.907 176.586 246.245 174.743 246.245ZM193.371 226.225V231.195H201.386V235.815H193.371V241.205H202.436V246H187.386V221.43H202.436V226.225H193.371Z" fill="#D0B503"/>
</svg>
